
* Henry.of.Navarre.aka.Henri.4.2010.DVDRiP.XViD.OPTIONAL-NORDIC_SUB-Zen_Bud *

Format                           : AVI
File size                        : 1.77 GiB
Duration                         : 2h 28mn
Overall bit rate                 : 1 705 Kbps

Video

Format                           : MPEG-4 Visual
Codec ID/Hint                    : XviD
Duration                         : 2h 28mn
Bit rate                         : 1 564 Kbps
Width                            : 720 pixels
Height                           : 436 pixels
Display aspect ratio             : 2.35:1
Stream size                      : 1.62 GiB (92%)
Writing library                  : XviD 1.1.2 (UTC 2006-11-01)

Audio
Format                           : MPEG Audio
Codec ID/Hint                    : MP3
Duration                         : 2h 28mn
Bit rate                         : 128 Kbps
Channel(s)                       : 2 channels
Sampling rate                    : 48.0 KHz
Stream size                      : 136 MiB (8%)
Language                         : French

Text #1

Language                         : Swedish

Text #2
Language                         : Norwegian

Text #3
Language                         : Danish

Text #4
Language                         : Finnish
 
http://www.henri-vier.com/